<svg viewBox="0 0 128 128" xmlns="http://www.w3.org/2000/svg" xml:space="preserve" style="fill-rule:evenodd;clip-rule:evenodd;stroke-linejoin:round;stroke-miterlimit:2"><circle cx="64" cy="64" r="64" style="fill:#7ac74c"/><path d="M99.76 26.37c-2.71-2.38-13.54.23-16.62.6a142.252 142.252 0 0 0-30 6.62c-10.05 3.55-18.25 8.67-23 18.6-5.889 12.625-4.189 27.544 4.39 38.52 2.19-2.33 5.33-4.68 7.06-7.36 2.31-3.57 1.05-10.7 1.22-15.18.05-1.32.54-19.59 1.43-19.65 1.08-.07 3.87 17.86 4.87 24.54a1.2 1.2 0 0 0 2 .67c2.38-2.353 4.77-4.687 7.17-7 1.64-1.59 2.46-2.21 2.9-4.28.44-2.07.11-4.89.25-7.08.08-1.3 1-17.76 2.18-17.84 1.18-.08 3.65 12.83 4.57 17.66a1.003 1.003 0 0 0 1.61.5c4.86-4.71 20-19.43 20.71-18.77.71.66-11.86 17.56-15.89 23a1 1 0 0 0 .71 1.53c4.91.27 18 1.12 18.11 2.2.11 1.08-16.22 4.28-17.4 4.51-2 .41-4.23.55-6.23 1.07-2.56.67-3 1.3-4.61 3.54l-6 8a1.21 1.21 0 0 0 .94 1.94c6.76.11 24.89.52 25 1.6.05.9-18 3.78-19.3 4-4.13.71-11.11.43-14.42 2.61-2.55 1.68-4.9 6.18-6.84 8.56a37.09 37.09 0 0 0 37.66 0c9.6-5.73 14-14.44 16.34-25a138.399 138.399 0 0 0 2.8-31.13c0-3.8-.14-7.61-.52-11.39-.15-1.27-.02-4.65-1.09-5.59z" style="fill:#fff;fill-rule:nonzero"/></svg>