<svg viewBox="0 0 128 128" xmlns="http://www.w3.org/2000/svg" xml:space="preserve" style="fill-rule:evenodd;clip-rule:evenodd;stroke-linejoin:round;stroke-miterlimit:2"><circle cx="64" cy="64" r="64" style="fill:#6f35fc"/><path d="M100.89 57.49c-3.389-16.858-17.988-29.312-35.17-30a18.228 18.228 0 0 0-.22-13A32.997 32.997 0 0 1 57 26a20.862 20.862 0 0 1-5.24 3.61 55.804 55.804 0 0 0-5.58 2.51 37.706 37.706 0 0 0-16 17.38A37.212 37.212 0 0 0 26.93 63a100.996 100.996 0 0 1 12.6-3.07c3.78-.66 7.61-1 11.41-1.51 7-1 12.51-5.06 16.37-11 8.197 2.637 13.792 10.314 13.792 18.925 0 10.906-8.974 19.88-19.88 19.88-1.498 0-2.992-.169-4.452-.505a26.706 26.706 0 0 0 8.81 10.82 26.318 26.318 0 0 0 6.36 3.35 6.896 6.896 0 0 0 3.23.71 18.038 18.038 0 0 0 3.74-1.36c16.252-6.916 25.49-24.456 22-41.77l-.02.02zM40.81 45a10.006 10.006 0 0 1 8.36-2.83c.047.394.07.791.07 1.188 0 5.524-4.545 10.07-10.07 10.07-.391 0-.782-.023-1.17-.068A10.005 10.005 0 0 1 40.81 45zm19.6 57.06C44.451 100.407 31.252 88.66 27.76 73a53.004 53.004 0 0 1 26.55-6.44 26.164 26.164 0 0 0-4.24 16.24 26.447 26.447 0 0 0 10.34 19.26z" style="fill:#fff;fill-rule:nonzero"/></svg>