<svg viewBox="0 0 128 128" xmlns="http://www.w3.org/2000/svg" xml:space="preserve" style="fill-rule:evenodd;clip-rule:evenodd;stroke-linejoin:round;stroke-miterlimit:2"><circle cx="64" cy="64" r="64" style="fill:#a6b91a"/><path d="M89 40c-3.93 9.55-11.51 12.15-21 13-5.9 17.33.62 36.47 13 49 23.88-11.29 28.26-45 8-62zM72.43 45.31A22.088 22.088 0 0 0 83 36a38.158 38.158 0 0 0-8.24-3.3l5.56-6.8c.405-.525.625-1.17.625-1.833 0-1.645-1.354-3-3-3-.869 0-1.696.377-2.265 1.033l-7.55 9.23a31.722 31.722 0 0 0-8.26 0l-7.55-9.23a3.001 3.001 0 0 0-2.375-1.167c-1.646 0-3 1.354-3 3 0 .722.261 1.421.735 1.967l5.56 6.8A38.158 38.158 0 0 0 45 36c5.532 9.448 17.289 13.439 27.43 9.31zM47 50a23.007 23.007 0 0 1-8-10c-1 .87-15.43 13.39-13 33 2.46 19.85 19.86 28.46 21 29 12.38-12.53 18.9-31.67 13-49-2.07-.18-8.51.14-13-3z" style="fill:#fff;fill-rule:nonzero"/></svg>