<svg viewBox="0 0 128 128" xmlns="http://www.w3.org/2000/svg" xml:space="preserve" style="fill-rule:evenodd;clip-rule:evenodd;stroke-linejoin:round;stroke-miterlimit:2"><circle cx="64" cy="64" r="64" style="fill:#ee8130"/><path d="M85.66 42.61c10.26 7.29 16.23 20.77 11.7 33-4.26 11.53-16.17 18.74-28.17 19.08a14.028 14.028 0 0 0 9.337-13.2c0-7.681-6.32-14-14-14a14.019 14.019 0 0 0-12.447 7.59c-5 9.6 2.9 19.17 11.52 23 9.77 4.36 21.06 1.14 28.9-5.6C79 111 51.67 114.29 36.67 95.81c-10.2-12.57-10.44-31-1.17-44.31C33.27 58.71 35 66 41 70c-6-12-2-21.09 6.14-29.14 3.92-3.88 8.91-5.36 13-8.75 4.5-3.72 5.09-9.9 4.23-15.33a20.642 20.642 0 0 1 11 19.72C64 36.55 59.83 52.37 69.85 58c9.76 5.52 21.09-5.46 15.81-15.39z" style="fill:#fff;fill-rule:nonzero"/></svg>