<svg viewBox="0 0 128 128" xmlns="http://www.w3.org/2000/svg" xml:space="preserve" style="fill-rule:evenodd;clip-rule:evenodd;stroke-linejoin:round;stroke-miterlimit:2"><circle cx="64" cy="64" r="64" style="fill:#a98ff3"/><path d="M98 76.08c-4.21 7.12-9.47 10.2-16.25 11-1.65.18-3.34 0-5 .25-1.19.15-2 1.43-1 2 4.86 2.67.46 3.93-.87 5a30.525 30.525 0 0 1-18.795 6.473c-16.742 0-30.52-13.777-30.52-30.52 0-2.686.355-5.36 1.055-7.953 3.296-12.651 14.466-21.78 27.52-22.49 8.3-.37 16.64-.33 25-.1C89.83 40 99.62 38 107.47 29.31c1.45 2.41.84 4.53.49 6.49-2.587 14.432-15.15 25.107-29.81 25.33-3 .07-6 0-9 .08-1 0-2.14.23-2.15 1.5 0 1 1 1.28 1.83 1.23 11-.55 22.44 2.44 32.44-4.74.73-.53 1.6-1.57 2.55-.5.78.87.21 1.89-.28 2.76C99.1 69.39 92.49 74.17 83.32 75c-2.64.24-5.32 0-8 .15-1.54.08-4.14-.72-4.22 1.35-.09 2.38 2.56 1.42 4 1.4 7.26-.08 14.57.92 22.9-1.82z" style="fill:#fdfdfe;fill-rule:nonzero"/></svg>