<svg viewBox="0 0 128 128" xmlns="http://www.w3.org/2000/svg" xml:space="preserve" style="fill-rule:evenodd;clip-rule:evenodd;stroke-linejoin:round;stroke-miterlimit:2"><circle cx="64" cy="64" r="64" style="fill:#705746"/><path d="M96.15 63.988v.024c0 17.275-14.215 31.49-31.49 31.49-3.495 0-6.966-.582-10.27-1.722C67.065 89.41 75.623 77.407 75.623 64S67.065 38.59 54.39 34.22a31.488 31.488 0 0 1 10.27-1.722c17.275 0 31.49 14.215 31.49 31.49zM64 24c-21.943 0-40 18.057-40 40s18.057 40 40 40 40-18.057 40-40-18.057-40-40-40z" style="fill:#fff;fill-rule:nonzero"/></svg>