<svg viewBox="0 0 128 128" xmlns="http://www.w3.org/2000/svg" xml:space="preserve" style="fill-rule:evenodd;clip-rule:evenodd;stroke-linejoin:round;stroke-miterlimit:2"><circle cx="64" cy="64" r="64" style="fill:#96d9d6"/><path d="M60.13 64.26 38.05 76.7 16.76 64l21-12.15 22.37 12.41zM90 51.3 67.87 63.74 90.2 76.19l21-12.15L90 51.3zM61.45 35.21l-21-12.14-.45 24.8 21.84 12.91-.39-25.57zM88 80.13 66.16 67.22l.39 25.57 21 12.14.45-24.8zm-.34-32.73V23.1L66 35.18l-.27 25.34L87.66 47.4zM62 92.82l.27-25.34L40.34 80.6v24.3L62 92.82z" style="fill:#fff;fill-rule:nonzero"/></svg>