<svg viewBox="0 0 128 128" xmlns="http://www.w3.org/2000/svg" xml:space="preserve" style="fill-rule:evenodd;clip-rule:evenodd;stroke-linejoin:round;stroke-miterlimit:2"><circle cx="64" cy="64" r="64" style="fill:#735797"/><path d="M100.25 63C100.25 29.75 59 12.2 35 35.27c-24.16 23.28-7.54 65.19 26 66.21 17.5 0 25.54-1.47 37.92-4.64a36.217 36.217 0 0 1-10.23-6.35A38.395 38.395 0 0 0 100.25 63zm-54 3c-5.068-.01-9.232-4.182-9.232-9.25a9.27 9.27 0 0 1 6.592-8.86c-.067.45-.104.905-.11 1.36v.022c0 5.063 4.167 9.23 9.23 9.23a9.22 9.22 0 0 0 2.66-.392c-.67 4.51-4.58 7.885-9.14 7.89zm30.89 0c-4.561 0-8.474-3.378-9.14-7.89a9.22 9.22 0 0 0 2.66.392c5.063 0 9.23-4.167 9.23-9.23v-.022a10.15 10.15 0 0 0-.11-1.36 9.27 9.27 0 0 1 6.592 8.86c0 5.068-4.164 9.24-9.232 9.25z" style="fill:#fff;fill-rule:nonzero"/></svg>