<svg viewBox="0 0 128 128" xmlns="http://www.w3.org/2000/svg" xml:space="preserve" style="fill-rule:evenodd;clip-rule:evenodd;stroke-linejoin:round;stroke-miterlimit:2"><circle cx="64" cy="64" r="64" style="fill:#c22e28"/><path d="m22.93 81.14 5 12.19a4.197 4.197 0 0 0 3.88 2.608c2.299 0 4.19-1.891 4.19-4.19V56.252c0-2.299-1.891-4.19-4.19-4.19a4.197 4.197 0 0 0-3.88 2.608l-5 12.19a18.783 18.783 0 0 0 0 14.28zM101.5 91.25v-52.5c0-2.88-2.37-5.25-5.25-5.25h-2.5c-2.88 0-5.25 2.37-5.25 5.25v17.08c0 .916-.754 1.67-1.67 1.67-.911 0-1.66-.749-1.66-1.66V38.75c0-2.88-2.37-5.25-5.25-5.25h-2.5c-2.88 0-5.25 2.37-5.25 5.25v17.08c0 .916-.754 1.67-1.67 1.67-.916 0-1.67-.754-1.67-1.67V38.75c0-2.88-2.37-5.25-5.25-5.25h-2.5c-2.88 0-5.25 2.37-5.25 5.25v17.09c0 .911-.749 1.66-1.66 1.66-.916 0-1.67-.754-1.67-1.67V38.75c0-2.88-2.37-5.25-5.25-5.25h-2.5c-2.88 0-5.25 2.37-5.25 5.25v52.5c0 2.88 2.37 5.25 5.25 5.25h51.5c2.88 0 5.25-2.37 5.25-5.25z" style="fill:#fff;fill-rule:nonzero"/></svg>