<svg viewBox="0 0 128 128" xmlns="http://www.w3.org/2000/svg" xml:space="preserve" style="fill-rule:evenodd;clip-rule:evenodd;stroke-linejoin:round;stroke-miterlimit:2"><circle cx="64" cy="64" r="64" style="fill:#6390f0"/><path d="M92.5 76c0 15.635-12.865 28.5-28.5 28.5S35.5 91.635 35.5 76c0-15.74 23-50.5 28.5-50.5S92.5 60.26 92.5 76zm-25 9.5c-8.229 0-15-6.771-15-15a14.843 14.843 0 0 1 1.12-5.67A17.013 17.013 0 0 0 46 79.008c0 9.326 7.674 17 17 17s17-7.674 17-17V78.8a15.013 15.013 0 0 1-12.5 6.7z" style="fill:#fff;fill-rule:nonzero"/></svg>