<?xml version="1.0" encoding="UTF-8" standalone="no"?>
<!DOCTYPE svg PUBLIC "-//W3C//DTD SVG 1.1//EN" "http://www.w3.org/Graphics/SVG/1.1/DTD/svg11.dtd">
<svg width="100%" height="100%" viewBox="0 0 100 100" version="1.1" xmlns="http://www.w3.org/2000/svg" xmlns:xlink="http://www.w3.org/1999/xlink" xml:space="preserve" xmlns:serif="http://www.serif.com/" style="fill-rule:evenodd;clip-rule:evenodd;stroke-linejoin:round;stroke-miterlimit:2;">
    <g transform="matrix(1.33106,0,0,1.28929,-17.6856,-18.4691)">
        <path d="M43.507,53.104C43.507,57.617 47.158,61.269 51.67,61.269C56.183,61.269 59.834,57.617 59.834,53.104C59.834,48.593 56.183,44.941 51.67,44.941C47.158,44.941 43.507,48.594 43.507,53.104Z" style="fill:rgb(235,235,235);fill-opacity:0.1;fill-rule:nonzero;"/>
    </g>
    <g transform="matrix(1.33106,0,0,1.28929,-17.6856,-18.4691)">
        <path d="M88.1,42.391C83.439,26.209 68.526,14.325 50.868,14.325C33.145,14.325 18.181,26.291 13.577,42.56C12.244,48.908 16.293,49.883 16.678,49.883L31.14,49.883C36.17,49.883 38.732,46.365 39.126,45.778C41.648,41.463 46.358,38.496 51.671,38.496C56.95,38.496 61.572,41.42 64.124,45.688L64.129,45.658C64.129,45.658 66.711,49.884 72.196,49.884L85.025,49.884C85.412,49.883 89.553,48.906 88.1,42.391Z" style="fill:rgb(235,235,235);fill-opacity:0.1;fill-rule:nonzero;"/>
    </g>
    <g transform="matrix(1.33106,0,0,1.28929,-17.6856,-18.4691)">
        <path d="M88.091,63.632C89.218,58.689 87.143,56.909 85.874,56.328L71.272,56.328C67.233,56.703 64.962,59.31 64.334,60.175C61.823,64.627 56.979,67.715 51.563,67.715C46.027,67.715 41.23,64.487 38.77,59.874C37.91,58.808 35.699,56.665 32.062,56.328L15.828,56.328C14.558,56.909 12.484,58.688 13.611,63.632C13.633,63.736 13.643,63.812 13.664,63.909C18.352,80.046 33.241,91.887 50.867,91.887C68.41,91.887 83.232,80.154 87.997,64.134C88.028,63.965 88.047,63.819 88.091,63.632Z" style="fill:rgb(235,235,235);fill-opacity:0.1;fill-rule:nonzero;"/>
    </g>
</svg>
